#!OML:ASF H:\GeneralSubjects\Female5\Project 1\Capture day 1\Session 1\Female5.ASF
:FULLY-SPECIFIED
:DEGREES
373
root -13.5245 15.6433 4.3862 194.45 -83.5337 532.005
lowerback 23.6707 10.3994 11.9178
upperback -15.6487 16.1526 -12.9216
thorax -29.4885 -1.20547 -36.5426
lowerneck -4.09384 -9.28225 4.57362
upperneck 44.8257 -26.4025 13.4406
head 20.9141 -9.90593 0.633438
rclavicle 6.99722e-014 -5.725e-014
rhumerus -71.0957 -22.8615 -85.605
rradius 33.9657
rwrist -0.0138099
rhand -17.7055 -19.4759
rfingers 7.12502
rthumb 8.55455 -49.2826
lclavicle 6.99722e-014 -5.725e-014
lhumerus -58.7057 -49.2169 89.1356
lradius 36.7738
lwrist -4.98391
lhand -21.4148 41.2208
lfingers 7.12502
lthumb 4.97381 71.1424
rfemur -18.667 -3.98716 22.1621
rtibia 53.9193
rfoot -21.0937 -19.9913
rtoes 2.18028
lfemur -10.4647 -15.4172 -33.3615
ltibia 13.3519
lfoot -16.8634 13.6055
ltoes -65.6519
374
root -13.764 15.6628 4.37713 194.822 -83.7508 531.53
lowerback 23.8994 10.2423 11.977
upperback -15.5242 15.9758 -12.8789
thorax -29.6438 -1.36009 -36.6034
lowerneck -4.08132 -9.41748 4.46313
upperneck 44.6649 -26.7329 13.7007
head 20.9529 -10.0497 0.69887
rclavicle -3.65764e-014 -4.13472e-014
rhumerus -72.2312 -23.6334 -84.0384
rradius 34.5978
rwrist -1.33923
rhand -18.8731 -19.5459
rfingers 7.12502
rthumb 7.42763 -49.3955
lclavicle -3.65764e-014 -4.13472e-014
lhumerus -57.3667 -49.4119 88.7379
lradius 37.7315
lwrist -4.72012
lhand -26.74 37.6807
lfingers 7.12502
lthumb -0.168943 67.6604
rfemur -20.9882 -4.21264 22.7105
rtibia 52.6459
rfoot -22.119 -19.1898
rtoes -2.81359
lfemur -8.74309 -15.7815 -33.8295
ltibia 12.3215
lfoot -16.9803 14.4591
ltoes -66.2688
375
root -13.9998 15.6808 4.36899 196.505 -84.0704 529.692
lowerback 24.1541 10.0201 12.041
upperback -15.3415 15.6922 -12.8644
thorax -29.804 -1.57558 -36.7061
lowerneck -4.10107 -9.58573 4.55719
upperneck 44.4597 -26.969 13.7139
head 20.8192 -10.1456 0.638428
rclavicle -5.24792e-014 9.22361e-014
rhumerus -73.2071 -24.2485 -82.733
rradius 35.1983
rwrist -3.51534
rhand -20.5843 -18.9453
rfingers 7.12502
rthumb 5.77568 -48.8466
lclavicle -5.24792e-014 9.22361e-014
lhumerus -56.1996 -49.7268 88.481
lradius 38.6268
lwrist -4.04563
lhand -26.6861 37.7244
lfingers 7.12502
lthumb -0.116871 67.7041
rfemur -23.2099 -4.55971 23.1323
rtibia 51.0048
rfoot -23.6615 -19.3552
rtoes -3.98392
lfemur -6.96556 -16.1745 -34.4607
ltibia 11.2469
lfoot -16.8949 15.0665
ltoes -66.8362
376
root -14.2351 15.699 4.35854 200.885 -84.4148 525.142
lowerback 24.349 9.80328 11.9339
upperback -15.1217 15.296 -12.9288
thorax -29.9508 -1.80132 -36.7356
lowerneck -3.97279 -9.65371 4.39087
upperneck 44.1392 -27.1576 14.1323
head 20.7488 -10.2489 0.823797
rclavicle -7.79236e-014 5.40694e-014
rhumerus -74.2805 -24.8496 -81.302
rradius 35.8724
rwrist -5.69844
rhand -21.5008 -18.2511
rfingers 7.12502
rthumb 4.8908 -48.1747
lclavicle -7.79236e-014 5.40694e-014
lhumerus -55.2741 -50.1691 88.4673
lradius 39.4012
lwrist -2.93849
lhand -27.2508 37.2603
lfingers 7.12502
lthumb -0.662307 67.239
rfemur -24.79 -5.09287 23.2553
rtibia 48.2283
rfoot -25.0275 -20.1942
rtoes -1.48078
lfemur -5.1974 -16.6251 -35.362
ltibia 10.2513
lfoot -16.8191 15.3828
ltoes -67.1218
377
root -14.4689 15.7145 4.34253 204.736 -84.8015 521.232
lowerback 24.414 9.61862 11.8813
upperback -14.9724 14.972 -12.9775
thorax -30.0168 -1.96264 -36.7206
lowerneck -3.86524 -9.82523 4.46306
upperneck 43.9158 -27.4221 14.2328
head 20.6119 -10.367 0.81259
rclavicle -1.51076e-013 -2.8625e-014
rhumerus -75.4679 -25.4156 -79.8242
rradius 36.7657
rwrist -7.80672
rhand -21.8619 -17.7775
rfingers 7.12502
rthumb 4.5421 -47.7088
lclavicle -1.51076e-013 -2.8625e-014
lhumerus -54.365 -50.6995 88.7362
lradius 39.86
lwrist -1.98825
lhand -27.6113 37.0898
lfingers 7.12502
lthumb -1.01047 67.0672
rfemur -26.3044 -5.36995 23.5672
rtibia 45.1676
rfoot -26.3745 -21.2694
rtoes -1.18208
lfemur -3.63711 -17.3225 -36.0977
ltibia 9.49459
lfoot -17.2291 15.5275
ltoes -66.9479
378
root -14.7 15.7248 4.321 206.684 -85.2591 519.376
lowerback 24.3895 9.43536 12.0143
upperback -14.911 14.7595 -12.9669
thorax -30.0416 -2.09727 -36.7626
lowerneck -3.78485 -10.0207 4.46506
upperneck 43.7566 -27.7012 14.2572
head 20.5186 -10.5009 0.771258
rclavicle -1.25632e-013 3.18055e-015
rhumerus -76.6387 -25.912 -78.426
rradius 37.6147
rwrist -10.0145
rhand -22.3297 -17.5282
rfingers 7.12502
rthumb 4.09041 -47.4686
lclavicle -1.25632e-013 3.18055e-015
lhumerus -53.5418 -51.2962 89.1979
lradius 40.1648
lwrist -1.44756
lhand -27.5061 37.3117
lfingers 7.12502
lthumb -0.908891 67.2895
rfemur -27.684 -5.30381 24.1939
rtibia 41.7338
rfoot -28.35 -21.4057
rtoes 1.59813
lfemur -2.34463 -17.9478 -36.5076
ltibia 8.90182
lfoot -17.4274 15.8684
ltoes -67.1299
379
root -14.934 15.7313 4.29393 209.573 -85.6633 516.676
lowerback 24.2984 9.2969 12.0905
upperback -14.8808 14.5703 -12.9942
thorax -30.058 -2.21973 -36.826
lowerneck -3.80966 -10.2125 4.2637
upperneck 43.6345 -28.041 14.3889
head 20.5709 -10.6651 0.781992
rclavicle -8.5875e-014 7.31528e-014
rhumerus -77.8223 -26.4494 -76.9125
rradius 38.1814
rwrist -12.0196
rhand -21.903 -17.6757
rfingers 7.12502
rthumb 4.50239 -47.6078
lclavicle -8.5875e-014 7.31528e-014
lhumerus -53.1522 -52.0819 89.9237
lradius 40.5817
lwrist -1.03248
lhand -27.2514 37.4589
lfingers 7.12502
lthumb -0.662875 67.4377
rfemur -28.6551 -5.18731 24.7162
rtibia 37.2592
rfoot -30.176 -21.2092
rtoes 6.4591
lfemur -1.128 -18.3848 -36.917
ltibia 8.23712
lfoot -17.2112 16.545
ltoes -67.4449
380
root -15.1731 15.7355 4.25737 215.663 -86.0073 510.767
lowerback 24.2005 9.2073 11.9379
upperback -14.8398 14.3182 -13.091
thorax -30.155 -2.36171 -36.8302
lowerneck -3.85581 -10.4168 4.15272
upperneck 43.5545 -28.4132 14.4726
head 20.6355 -10.828 0.748826
rclavicle 1.30403e-013 -1.74931e-013
rhumerus -79.1674 -27.0622 -75.2335
rradius 38.5379
rwrist -13.4396
rhand -20.9434 -18.0613
rfingers 7.12502
rthumb 5.42898 -47.9718
lclavicle 1.30403e-013 -1.74931e-013
lhumerus -53.1133 -53.0352 90.9828
lradius 40.7894
lwrist -0.875205
lhand -27.3757 37.3379
lfingers 7.12502
lthumb -0.782993 67.3162
rfemur -29.4804 -4.94068 24.942
rtibia 32.508
rfoot -38.6312 -13.6041
rtoes 32.8234
lfemur 0.168612 -18.8261 -37.4869
ltibia 7.5126
lfoot -17.1256 17.0384
ltoes -67.33
381
root -15.4133 15.7379 4.21506 224.931 -86.2716 501.621
lowerback 24.1771 9.1333 11.6085
upperback -14.7723 14.0019 -13.2103
thorax -30.3781 -2.54025 -36.7596
lowerneck -3.8158 -10.6641 4.15731
upperneck 43.455 -28.8067 14.4789
head 20.6138 -11.001 0.669635
rclavicle -7.63333e-014 7.31528e-014
rhumerus -80.6648 -27.5998 -73.6641
rradius 38.9026
rwrist -14.4055
rhand -20.7547 -18.3915
rfingers 7.12502
rthumb 5.61115 -48.2972
lclavicle -7.63333e-014 7.31528e-014
lhumerus -53.2255 -54.0569 92.3249
lradius 40.7197
lwrist -0.951226
lhand -27.6057 37.4681
lfingers 7.12502
lthumb -1.00509 67.4455
rfemur -29.6129 -4.61826 24.9067
rtibia 26.884
rfoot -29.0626 -24.1151
rtoes -1.74041
lfemur 1.5441 -19.2352 -38.1787
ltibia 6.73949
lfoot -17.2005 17.2329
ltoes -67.3047
382
root -15.6508 15.7346 4.17429 234.687 -86.3502 492.062
lowerback 24.1456 9.10633 11.2598
upperback -14.725 13.7465 -13.3391
thorax -30.5789 -2.68147 -36.6987
lowerneck -3.77771 -10.9936 4.00767
upperneck 43.2748 -29.2247 14.432
head 20.5372 -11.2146 0.582443
rclavicle -3.65764e-014 7.95139e-014
rhumerus -82.15 -27.9927 -72.3369
rradius 39.3865
rwrist -15.1048
rhand -21.0283 -18.6693
rfingers 7.12502
rthumb 5.34701 -48.5818
lclavicle -3.65764e-014 7.95139e-014
lhumerus -53.6056 -55.2049 93.9586
lradius 40.6312
lwrist -1.19591
lhand -27.4992 37.8287
lfingers 7.12502
lthumb -0.902191 67.8066
rfemur -29.7754 -3.86777 24.6886
rtibia 21.3884
rfoot -28.0324 -26.2672
rtoes -6.90337
lfemur 2.79994 -19.5037 -38.856
ltibia 5.93906
lfoot -17.3993 17.2411
ltoes -67.2155
383
root -15.8949 15.7225 4.13272 243.015 -86.3492 484.012
lowerback 23.9745 9.1105 11.019
upperback -14.7298 13.5776 -13.4818
thorax -30.6284 -2.75923 -36.7035
lowerneck -3.81723 -11.3048 3.82944
upperneck 43.0478 -29.6071 14.4215
head 20.4596 -11.4078 0.515034
rclavicle 5.40694e-014 -3.18055e-014
rhumerus -83.546 -28.2776 -71.223
rradius 39.8292
rwrist -15.4445
rhand -21.2275 -18.9546
rfingers 7.12502
rthumb 5.15464 -48.8719
lclavicle 5.40694e-014 -3.18055e-014
lhumerus -54.3152 -56.3599 95.6955
lradius 40.6014
lwrist -1.89234
lhand -27.7215 37.4837
lfingers 7.12502
lthumb -1.11693 67.4605
rfemur -29.467 -2.10295 24.1612
rtibia 15.3035
rfoot -29.1103 -27.9538
rtoes -5.43832
lfemur 3.93645 -19.6069 -39.4204
ltibia 5.25739
lfoot -17.6785 17.1849
ltoes -67.0173
384
root -16.1512 15.7018 4.08982 252.146 -86.2767 475.137
lowerback 23.7049 9.10934 10.7884
upperback -14.7465 13.3889 -13.651
thorax -30.6019 -2.8215 -36.7029
lowerneck -3.84542 -11.5856 3.71948
upperneck 42.7697 -29.9835 14.5042
head 20.3664 -11.5863 0.481972
rclavicle -1.74931e-014 6.36111e-014
rhumerus -84.7843 -28.4277 -70.4233
rradius 40.0164
rwrist -15.5594
rhand -21.4956 -19.219
rfingers 7.12502
rthumb 4.89582 -49.1424
lclavicle -1.74931e-014 6.36111e-014
lhumerus -55.4775 -57.5037 97.7165
lradius 40.6112
lwrist -2.69283
lhand -28.2962 36.8363
lfingers 7.12502
lthumb -1.67203 66.8095
rfemur -28.8579 0.878158 22.9805
rtibia 9.32312
rfoot -32.8367 -29.68
rtoes 0.596872
lfemur 5.17821 -19.7147 -40.0876
ltibia 4.55423
lfoot -17.6975 17.4517
ltoes -67.279
385
root -16.4119 15.6735 4.04369 261.465 -86.0988 466.072
lowerback 23.3782 9.10298 10.5129
upperback -14.7724 13.1679 -13.8211
thorax -30.5516 -2.8614 -36.6015
lowerneck -3.74115 -11.8329 3.25051
upperneck 42.343 -30.4329 15.0116
head 20.3839 -11.8319 0.67325
rclavicle -1.1609e-013 6.99722e-014
rhumerus -85.939 -28.4757 -69.8449
rradius 40.0608
rwrist -15.3895
rhand -21.7735 -19.2901
rfingers 7.12502
rthumb 4.62751 -49.2196
lclavicle -1.1609e-013 6.99722e-014
lhumerus -57.0217 -58.5382 100.099
lradius 40.7172
lwrist -3.1711
lhand -28.3236 36.6969
lfingers 7.12502
lthumb -1.69845 66.6699
rfemur -28.0401 6.71923 20.4345
rtibia 3.33881
rfoot -41.4734 -31.9884
rtoes 4.54683
lfemur 6.50752 -20.1345 -40.865
ltibia 3.77506
lfoot -17.7738 18.0065
ltoes -67.4501
386
root -16.6748 15.6358 3.9948 268.382 -85.9732 459.518
lowerback 22.9567 9.1223 10.3926
upperback -14.8758 13.065 -13.9745
thorax -30.4459 -2.88593 -36.6428
lowerneck -3.53858 -12.0502 2.72217
upperneck 41.8858 -30.8617 15.6195
head 20.4129 -12.0839 0.926484
rclavicle -2.06736e-014 2.22639e-014
rhumerus -87.2135 -28.5725 -69.3146
rradius 40.0773
rwrist -14.6526
rhand -21.2455 -20.4802
rfingers 7.12502
rthumb 5.13726 -50.3979
lclavicle -2.06736e-014 2.22639e-014
lhumerus -58.7656 -59.3785 102.477
lradius 40.9305
lwrist -3.4534
lhand -28.1944 36.4225
lfingers 7.12502
lthumb -1.57369 66.3964
rfemur -29.0724 17.348 15.4502
rtibia -0.67797
rfoot -55.4215 -36.6867
rtoes 4.63676
lfemur 7.58024 -20.5004 -41.3758
ltibia 3.29713
lfoot -18.4654 18.0354
ltoes -66.9407
